# xmcd
#
# Track frame offsets: 
#        150
#        12584
#        27832
#        37859
#        51411
#        71043
#        82910
#        94485
#
# Disc length: 1505 seconds
#
# Revision: 0
# Processed by: cddbd v1.5.2PL0 Copyright (c) Steve Scherf et al.
# Submitted via: ExactAudioCopy v1.0b3
#
DISCID=6305df08
DTITLE=Brenda Lee - Have A Little Talk With Jesus
DYEAR=1900
DGENRE=Gospel
TTITLE0=This Little Light Of Mine
TTITLE1=Softly And Tenderly
TTITLE2=Have A Little Talk With Jesus
TTITLE3=Amazing Grace
TTITLE4=What A Friend We Have In Jesus
TTITLE5=The Unclouded Day
TTITLE6=Jesus Loves Me
TTITLE7=Precious Memories
EXTD=
EXTT0=
EXTT1=
EXTT2=
EXTT3=
EXTT4=
EXTT5=
EXTT6=
EXTT7=
PLAYORDER=
